<svg xmlns="http://www.w3.org/2000/svg" viewBox="0 0 800 500" width="800" height="500">
  <!-- Background -->
  <rect width="800" height="500" fill="#f9f9f9"/>
  
  <!-- Sky -->
  <rect width="800" height="300" fill="#E3F2FD"/>
  
  <!-- Sun -->
  <circle cx="100" cy="100" r="60" fill="#FFEB3B"/>
  <circle cx="100" cy="100" r="70" fill="#FFEB3B" opacity="0.3"/>
  <circle cx="100" cy="100" r="80" fill="#FFEB3B" opacity="0.1"/>
  
  <!-- Fields -->
  <path d="M0,300 L800,300 L800,500 L0,500 Z" fill="#8BC34A"/>
  
  <!-- Modern Farm Building -->
  <rect x="500" y="200" width="200" height="100" fill="#FFFFFF" stroke="#757575" stroke-width="2"/>
  <path d="M480,200 L720,200 L600,150 Z" fill="#4CAF50" stroke="#388E3C" stroke-width="2"/>
  <rect x="550" y="250" width="40" height="50" fill="#90CAF9"/>
  <rect x="610" y="250" width="40" height="50" fill="#90CAF9"/>
  
  <!-- Tractor -->
  <g transform="translate(200, 350)">
    <!-- Tractor Body -->
    <rect x="0" y="-30" width="100" height="50" rx="5" fill="#4CAF50" stroke="#388E3C" stroke-width="2"/>
    
    <!-- Cabin -->
    <rect x="70" y="-60" width="50" height="30" rx="5" fill="#81C784" stroke="#388E3C" stroke-width="2"/>
    <rect x="80" y="-50" width="30" height="15" fill="#B3E5FC" stroke="#0288D1" stroke-width="1"/>
    
    <!-- Wheels -->
    <circle cx="30" cy="30" r="25" fill="#5D4037" stroke="#3E2723" stroke-width="2"/>
    <circle cx="30" cy="30" r="15" fill="#8D6E63" stroke="#5D4037" stroke-width="2"/>
    <circle cx="100" cy="30" r="20" fill="#5D4037" stroke="#3E2723" stroke-width="2"/>
    <circle cx="100" cy="30" r="10" fill="#8D6E63" stroke="#5D4037" stroke-width="2"/>
    
    <!-- Plow -->
    <path d="M-20,0 L0,0 L0,20 L-20,30 Z" fill="#8D6E63" stroke="#5D4037" stroke-width="2"/>
  </g>
  
  <!-- Drone -->
  <g transform="translate(350, 150)">
    <!-- Drone Body -->
    <rect x="-15" y="-15" width="30" height="30" rx="5" fill="#E0E0E0" stroke="#757575" stroke-width="2"/>
    
    <!-- Propellers -->
    <line x1="-40" y1="-40" x2="-20" y2="-20" stroke="#9E9E9E" stroke-width="2"/>
    <line x1="-50" y1="-30" x2="-30" y2="-10" stroke="#9E9E9E" stroke-width="2"/>
    <circle cx="-40" cy="-40" r="10" fill="#BDBDBD" stroke="#757575" stroke-width="1"/>
    
    <line x1="40" y1="-40" x2="20" y2="-20" stroke="#9E9E9E" stroke-width="2"/>
    <line x1="50" y1="-30" x2="30" y2="-10" stroke="#9E9E9E" stroke-width="2"/>
    <circle cx="40" cy="-40" r="10" fill="#BDBDBD" stroke="#757575" stroke-width="1"/>
    
    <line x1="-40" y1="40" x2="-20" y2="20" stroke="#9E9E9E" stroke-width="2"/>
    <line x1="-50" y1="30" x2="-30" y2="10" stroke="#9E9E9E" stroke-width="2"/>
    <circle cx="-40" cy="40" r="10" fill="#BDBDBD" stroke="#757575" stroke-width="1"/>
    
    <line x1="40" y1="40" x2="20" y2="20" stroke="#9E9E9E" stroke-width="2"/>
    <line x1="50" y1="30" x2="30" y2="10" stroke="#9E9E9E" stroke-width="2"/>
    <circle cx="40" cy="40" r="10" fill="#BDBDBD" stroke="#757575" stroke-width="1"/>
  </g>
  
  <!-- Solar Panels -->
  <g transform="translate(100, 250)">
    <rect x="0" y="0" width="120" height="80" fill="#2196F3" stroke="#1565C0" stroke-width="2"/>
    <line x1="30" y1="0" x2="30" y2="80" stroke="#0D47A1" stroke-width="1"/>
    <line x1="60" y1="0" x2="60" y2="80" stroke="#0D47A1" stroke-width="1"/>
    <line x1="90" y1="0" x2="90" y2="80" stroke="#0D47A1" stroke-width="1"/>
    <line x1="0" y1="20" x2="120" y2="20" stroke="#0D47A1" stroke-width="1"/>
    <line x1="0" y1="40" x2="120" y2="40" stroke="#0D47A1" stroke-width="1"/>
    <line x1="0" y1="60" x2="120" y2="60" stroke="#0D47A1" stroke-width="1"/>
  </g>
  
  <!-- Smart Irrigation System -->
  <g transform="translate(600, 350)">
    <line x1="0" y1="0" x2="0" y2="-50" stroke="#607D8B" stroke-width="3"/>
    <circle cx="0" cy="-60" r="10" fill="#29B6F6" stroke="#0288D1" stroke-width="1"/>
    <path d="M-20,-60 C-15,-40 15,-40 20,-60" stroke="#29B6F6" stroke-width="2" fill="none"/>
    <path d="M-15,-65 C-10,-50 10,-50 15,-65" stroke="#29B6F6" stroke-width="2" fill="none"/>
    <path d="M-10,-70 C-5,-60 5,-60 10,-70" stroke="#29B6F6" stroke-width="2" fill="none"/>
  </g>
</svg>