<svg xmlns="http://www.w3.org/2000/svg" viewBox="0 0 800 500" width="800" height="500">
  <!-- Sky Background -->
  <rect width="800" height="500" fill="#E3F2FD"/>
  
  <!-- Sun -->
  <circle cx="700" cy="100" r="60" fill="#FFEB3B"/>
  <circle cx="700" cy="100" r="70" fill="#FFEB3B" opacity="0.3"/>
  <circle cx="700" cy="100" r="80" fill="#FFEB3B" opacity="0.1"/>
  
  <!-- Mountains -->
  <path d="M0,300 L200,180 L400,280 L600,200 L800,300 L800,500 L0,500 Z" fill="#81C784" opacity="0.3"/>
  
  <!-- Fields -->
  <path d="M0,320 L800,320 L800,500 L0,500 Z" fill="#8BC34A"/>
  
  <!-- Crop Rows -->
  <g>
    <path d="M50,350 L750,350" stroke="#33691E" stroke-width="2" stroke-dasharray="10,15"/>
    <path d="M50,380 L750,380" stroke="#33691E" stroke-width="2" stroke-dasharray="10,15"/>
    <path d="M50,410 L750,410" stroke="#33691E" stroke-width="2" stroke-dasharray="10,15"/>
    <path d="M50,440 L750,440" stroke="#33691E" stroke-width="2" stroke-dasharray="10,15"/>
    <path d="M50,470 L750,470" stroke="#33691E" stroke-width="2" stroke-dasharray="10,15"/>
  </g>
  
  <!-- Farmer -->
  <g transform="translate(300, 380)">
    <!-- Body -->
    <rect x="-15" y="-60" width="30" height="60" fill="#5D4037"/>
    
    <!-- Head -->
    <circle cx="0" cy="-75" r="15" fill="#8D6E63"/>
    
    <!-- Hat -->
    <path d="M-20,-80 L20,-80 L0,-100 Z" fill="#FFA000"/>
    
    <!-- Arms -->
    <line x1="-15" y1="-40" x2="-40" y2="-20" stroke="#5D4037" stroke-width="10" stroke-linecap="round"/>
    <line x1="15" y1="-40" x2="40" y2="-20" stroke="#5D4037" stroke-width="10" stroke-linecap="round"/>
    
    <!-- Legs -->
    <line x1="-10" y1="0" x2="-20" y2="30" stroke="#3E2723" stroke-width="10" stroke-linecap="round"/>
    <line x1="10" y1="0" x2="20" y2="30" stroke="#3E2723" stroke-width="10" stroke-linecap="round"/>
  </g>
  
  <!-- Plants -->
  <g>
    <!-- Plant 1 -->
    <g transform="translate(150, 350)">
      <line x1="0" y1="0" x2="0" y2="-30" stroke="#33691E" stroke-width="2"/>
      <path d="M0,-30 C-10,-35 -15,-45 -5,-50 C5,-55 0,-65 -5,-70" stroke="#33691E" stroke-width="2" fill="none"/>
      <path d="M0,-30 C10,-35 15,-45 5,-50 C-5,-55 0,-65 5,-70" stroke="#33691E" stroke-width="2" fill="none"/>
    </g>
    
    <!-- Plant 2 -->
    <g transform="translate(200, 380)">
      <line x1="0" y1="0" x2="0" y2="-40" stroke="#33691E" stroke-width="2"/>
      <path d="M0,-40 C-15,-45 -20,-60 -10,-65" stroke="#33691E" stroke-width="2" fill="none"/>
      <path d="M0,-40 C15,-45 20,-60 10,-65" stroke="#33691E" stroke-width="2" fill="none"/>
      <path d="M0,-30 C-10,-30 -15,-35 -5,-40" stroke="#33691E" stroke-width="2" fill="none"/>
      <path d="M0,-30 C10,-30 15,-35 5,-40" stroke="#33691E" stroke-width="2" fill="none"/>
    </g>
    
    <!-- Plant 3 -->
    <g transform="translate(400, 410)">
      <line x1="0" y1="0" x2="0" y2="-35" stroke="#33691E" stroke-width="2"/>
      <path d="M0,-35 C-12,-40 -18,-50 -8,-55" stroke="#33691E" stroke-width="2" fill="none"/>
      <path d="M0,-35 C12,-40 18,-50 8,-55" stroke="#33691E" stroke-width="2" fill="none"/>
      <path d="M0,-25 C-8,-25 -12,-30 -4,-35" stroke="#33691E" stroke-width="2" fill="none"/>
      <path d="M0,-25 C8,-25 12,-30 4,-35" stroke="#33691E" stroke-width="2" fill="none"/>
    </g>
    
    <!-- Plant 4 -->
    <g transform="translate(500, 380)">
      <line x1="0" y1="0" x2="0" y2="-45" stroke="#33691E" stroke-width="2"/>
      <path d="M0,-45 C-15,-50 -22,-65 -12,-70" stroke="#33691E" stroke-width="2" fill="none"/>
      <path d="M0,-45 C15,-50 22,-65 12,-70" stroke="#33691E" stroke-width="2" fill="none"/>
      <path d="M0,-35 C-12,-35 -18,-40 -8,-45" stroke="#33691E" stroke-width="2" fill="none"/>
      <path d="M0,-35 C12,-35 18,-40 8,-45" stroke="#33691E" stroke-width="2" fill="none"/>
      <path d="M0,-25 C-8,-25 -12,-30 -4,-35" stroke="#33691E" stroke-width="2" fill="none"/>
      <path d="M0,-25 C8,-25 12,-30 4,-35" stroke="#33691E" stroke-width="2" fill="none"/>
    </g>
    
    <!-- Plant 5 -->
    <g transform="translate(600, 440)">
      <line x1="0" y1="0" x2="0" y2="-30" stroke="#33691E" stroke-width="2"/>
      <path d="M0,-30 C-10,-35 -15,-45 -5,-50" stroke="#33691E" stroke-width="2" fill="none"/>
      <path d="M0,-30 C10,-35 15,-45 5,-50" stroke="#33691E" stroke-width="2" fill="none"/>
    </g>
  </g>
  
  <!-- Tractor -->
  <g transform="translate(650, 420)">
    <!-- Tractor Body -->
    <rect x="-30" y="-30" width="60" height="30" fill="#F44336" rx="5" ry="5"/>
    
    <!-- Cabin -->
    <rect x="-20" y="-50" width="30" height="20" fill="#FFEB3B" rx="3" ry="3"/>
    
    <!-- Wheels -->
    <circle cx="-20" cy="5" r="15" fill="#212121"/>
    <circle cx="20" cy="5" r="15" fill="#212121"/>
    <circle cx="-20" cy="5" r="7" fill="#757575"/>
    <circle cx="20" cy="5" r="7" fill="#757575"/>
  </g>
  
  <!-- Clouds -->
  <g fill="white">
    <ellipse cx="150" cy="100" rx="60" ry="30" opacity="0.8"/>
    <ellipse cx="200" cy="90" rx="50" ry="25" opacity="0.8"/>
    <ellipse cx="250" cy="100" rx="40" ry="20" opacity="0.8"/>
    
    <ellipse cx="500" cy="150" rx="70" ry="35" opacity="0.8"/>
    <ellipse cx="550" cy="140" rx="60" ry="30" opacity="0.8"/>
    <ellipse cx="600" cy="150" rx="50" ry="25" opacity="0.8"/>
  </g>
  
  <!-- Birds -->
  <g stroke="#212121" stroke-width="2">
    <path d="M100,120 C110,110 120,120 130,110" fill="none"/>
    <path d="M150,100 C160,90 170,100 180,90" fill="none"/>
    <path d="M400,130 C410,120 420,130 430,120" fill="none"/>
  </g>
</svg>