<svg xmlns="http://www.w3.org/2000/svg" viewBox="0 0 100 100" width="100" height="100">
  <!-- Background Circle -->
  <circle cx="50" cy="50" r="48" fill="#f9f9f9" stroke="#4CAF50" stroke-width="2"/>
  
  <!-- Leaf Shape -->
  <path d="M30,30 C40,20 60,20 70,30 C80,40 80,60 70,70 C60,80 40,80 30,70 C20,60 20,40 30,30 Z" 
        fill="#C8E6C9" stroke="#4CAF50" stroke-width="2"/>
  
  <!-- Stem -->
  <path d="M50,70 L50,85" stroke="#388E3C" stroke-width="3" stroke-linecap="round"/>
  
  <!-- Leaf Veins -->
  <path d="M50,30 L50,70" stroke="#388E3C" stroke-width="2" stroke-linecap="round"/>
  <path d="M30,50 L70,50" stroke="#388E3C" stroke-width="2" stroke-linecap="round"/>
  <path d="M35,35 L65,65" stroke="#388E3C" stroke-width="1.5" stroke-linecap="round"/>
  <path d="M35,65 L65,35" stroke="#388E3C" stroke-width="1.5" stroke-linecap="round"/>
  
  <!-- Water Droplet (Fixed) -->
  <path d="M60,40 C60,35 65,30 70,35 C75,40 70,45 65,45 C60,45 60,40 60,40 Z" 
        fill="#81C784" stroke="#388E3C" stroke-width="1.5"/>
</svg>
